<?xml version="1.0" encoding="utf-8"?>
<!-- Generator: Adobe Illustrator 16.0.0, SVG Export Plug-In . SVG Version: 6.00 Build 0)  -->
<!DOCTYPE svg PUBLIC "-//W3C//DTD SVG 1.1//EN" "http://www.w3.org/Graphics/SVG/1.1/DTD/svg11.dtd">
<svg version="1.1" id="Capa_1" xmlns="http://www.w3.org/2000/svg" xmlns:xlink="http://www.w3.org/1999/xlink" x="0px" y="0px"
	 width="512px" height="512px" viewBox="0 0 512 512" enable-background="new 0 0 512 512" xml:space="preserve">
<g>
	<path fill="#FFFFFF" d="M165.844,225.659c-10.93-15.105-18.178-33.136-20.356-52.87c-0.455-4.121-4.168-7.094-8.285-6.637
		c-4.121,0.455-7.093,4.164-6.637,8.285C137.629,238.41,191.554,286.652,256,286.652c69.594,0,126.212-56.617,126.212-126.212
		c0-69.594-56.618-126.213-126.212-126.213c-30.212,0-59.442,10.843-82.307,30.531c-22.619,19.477-37.649,46.354-42.321,75.682
		c-0.652,4.094,2.138,7.942,6.232,8.594c4.088,0.647,7.942-2.138,8.594-6.232c4.113-25.826,17.357-49.502,37.291-66.666
		c20.143-17.344,45.894-26.896,72.51-26.896c61.315,0,111.198,49.884,111.198,111.199c0,24.295-7.838,46.791-21.108,65.104
		c-13.372-16.04-30.179-28.76-49.296-37.259c17.295-17.313,21.779-43.641,11.12-65.819c-1.796-3.736-6.281-5.31-10.018-3.515
		c-3.736,1.796-5.311,6.281-3.514,10.018c7.991,16.63,4.493,36.399-8.706,49.194l-4.04,3.915c-2.629,2.548-3.764,6.213-3.037,9.801
		s3.198,6.521,6.612,7.845c20.143,7.811,37.68,20.746,51.077,37.571c-20.255,21.15-48.76,34.343-80.289,34.343
		c-31.447,0-60.046-13.041-80.366-34.246c13.406-16.873,30.974-29.844,51.154-37.669c3.413-1.324,5.885-4.257,6.612-7.845
		s-0.409-7.253-3.037-9.8l-4.04-3.916c-9.962-9.657-14.521-23.068-12.51-36.794c2.011-13.728,10.227-25.267,22.54-31.66
		c12.158-6.312,26.718-6.373,38.946-0.165c3.696,1.877,8.214,0.402,10.092-3.295c1.877-3.696,0.401-8.215-3.295-10.092
		c-16.533-8.394-36.219-8.31-52.661,0.228c-16.649,8.644-27.757,24.246-30.477,42.807c-2.673,18.252,3.242,36.089,16.247,49.094
		C196.05,196.803,179.226,209.568,165.844,225.659L165.844,225.659z"/>
</g>
</svg>
